{"title":"King Kong[Theatri.Cut] (2005)1080p BDRip[Hindi-Tamil-Eng]-DGrea8","uid":9148536,"size":3894362791,"categoryP":"video","categoryS":"hd___movies","magnet":"?xt=urn:btih:2aa7818f3f926845620c386811a3fee88e48aa8b&amp;dn=King+Kong%5BTheatri.Cut%5D+%282005%291080p+BDRip%5BHindi-Tamil-Eng%5D-DGrea8&amp;tr=udp%3A%2F%2Ftracker.openbittorrent.com%3A80&amp;tr=udp%3A%2F%2Fopen.demonii.com%3A1337&amp;tr=udp%3A%2F%2Ftracker.coppersurfer.tk%3A6969&amp;tr=udp%3A%2F%2Fexodus.desync.com%3A6969","seeders":2,"leechers":4,"uploader":"DGrea8","files":-1,"time":1383630805,"description":" King Kong[Theatrical Cut] (2005)1080p BDRip[(Hindi-Tamil)DD2.1-Eng(DD5.1)]-DGrea8\n\n\nStoryline:-\n\nCarl Denham needs to finish his movie and has the perfect location; Skull Island. But he still needs to find a leading lady. This 'soon-to-be-unfortunate' soul is Ann Darrow. No one knows what they will encounter on this island and why it is so mysterious, but once they reach it, they will soon find out. Living on this hidden island is a giant gorilla and this beast now has Ann is its grasps. Carl and Ann's new love, Jack Driscoll must travel through the jungle looking for Kong and Ann, whilst avoiding all sorts of creatures and beasts. But Carl has another plan in mind.\n\n\nCast Info:. \n\nNaomi Watts\t ...\tAnn Darrow\nJack Black\t ...\tCarl Denham\nAdrien Brody\t ...\tJack Driscoll\nThomas Kretschmann\t ...\tCaptain Englehorn\nColin Hanks\t ...\tPreston\nAndy Serkis\t ...\tKong / Lumpy\nEvan Parke\t ...\tHayes\nJamie Bell\t ...\tJimmy\nLobo Chan\t ...\tChoy\nJohn Sumner\t ...\tHerb\nCraig Hall\t ...\tMike\nKyle Chandler\t ...\tBruce Baxter\nWilliam Johnson\t ...\tManny\nMark Hadlow\t ...\tHarry\nGeraldine Brophy\t ...\tMaude\n\n\nGeneral Info:. \n\nDirector:Peter Jackson\nWriters: Fran Walsh (screenplay), Philippa Boyens (screenplay)\nStars: Naomi Watts, Jack Black, Adrien Brody\nRelease Date:14 December 2005 (USA)\nGenres: Action | Adventure | Drama\n\n\nVideo Info:-\n \nVideo\n\nID : 1\nFormat : AVC\nFormat/Info : Advanced Video Codec\nFormat profile : &lt;a class=&quot;__cf_email__&quot; href=&quot;/cdn-cgi/l/email-protection&quot; data-cfemail=&quot;b4f9d5dddaf4f8809a84&quot;&gt;[email&amp;#160;protected]&lt;/a&gt;&lt;script cf-hash='f9e31' type=&quot;text/javascript&quot;&gt;\n/* &lt;![CDATA[ */!function(){try{var t=&quot;currentScript&quot;in document?document.currentScript:function(){for(var t=document.getElementsByTagName(&quot;script&quot;),e=t.length;e--;)if(t[e].getAttribute(&quot;cf-hash&quot;))return t[e]}();if(t&amp;&amp;t.previousSibling){var e,r,n,i,c=t.previousSibling,a=c.getAttribute(&quot;data-cfemail&quot;);if(a){for(e=&quot;&quot;,r=parseInt(a.substr(0,2),16),n=2;a.length-n;n+=2)i=parseInt(a.substr(n,2),16)^r,e+=String.fromCharCode(i);e=document.createTextNode(e),c.parentNode.replaceChild(e,c)}}}catch(u){}}();/* ]]&gt; */&lt;/script&gt;\nFormat settings, CABAC : Yes\nFormat settings, ReFrames : 4 frames\nMuxing mode : Header stripping\nCodec ID : V_MPEG4/ISO/AVC\nDuration : 2h 59mn\nBit rate : 2 000 Kbps\nWidth : 1 920 pixels\nHeight : 800 pixels\nDisplay aspect ratio : 2.40:1\nFrame rate mode : Constant\nFrame rate : 25.000 fps\nColor space : YUV\nChroma subsampling : 4:2:0\nBit depth : 8 bits\nScan type : Progressive\nStream size : 2.55 GiB (76%)\n\n\n\nAudio Info:. \n\nAudio #1\nID : 1\nFormat : AC-3\nFormat/Info : Audio Coding 3\nMode extension : CM (complete main)\nFormat settings, Endianness : Big\nMuxing mode : Header stripping\nCodec ID : A_AC3\nDuration : 2h 59mn\nBit rate mode : Constant\nBit rate : 192 Kbps\nChannel(s) : 2 channels\nChannel positions : Front: L R\nSampling rate : 48.0 KHz\nBit depth : 16 bits\nCompression mode : Lossy\nDelay relative to video : 1s 0ms\nStream size : 247 MiB (7%)\nLanguage : Hindi\n\nAudio #2\nID : 2\nFormat : AC-3\nFormat/Info : Audio Coding 3\nMode extension : CM (complete main)\nFormat settings, Endianness : Big\nMuxing mode : Header stripping\nCodec ID : A_AC3\nDuration : 2h 59mn\nBit rate mode : Constant\nBit rate : 384 Kbps\nChannel(s) : 6 channels\nChannel positions : Front: L C R, Side: L R, LFE\nSampling rate : 48.0 KHz\nBit depth : 16 bits\nCompression mode : Lossy\nStream size : 493 MiB (14%)\nLanguage : English\n\n\nAudio\nID : 3\nFormat : AC-3\nFormat/Info : Audio Coding 3\nMode extension : CM (complete main)\nFormat settings, Endianness : Big\nMuxing mode : Header stripping\nCodec ID : A_AC3\nDuration : 2h 59mn\nBit rate mode : Constant\nBit rate : 192 Kbps\nChannel(s) : 2 channels\nChannel positions : Front: L R\nSampling rate : 48.0 KHz\nBit depth : 16 bits\nCompression mode : Lossy\nStream size : 247 MiB\nLanguage : Tamil\n\nSubtitle : English\n\n\n\nScreen Shoots:-\n     &lt;a href=&quot;\nhttp://img17.imageshack.us/img17/3481/1n7o.jpg&quot; rel=&quot;nofollow&quot; target=&quot;_NEW&quot;&gt;\nhttp://img17.imageshack.us/img17/3481/1n7o.jpg&lt;/a&gt;\n &lt;a href=&quot;\nhttp://img689.imageshack.us/img689/6196/ocoh.jpg&quot; rel=&quot;nofollow&quot; target=&quot;_NEW&quot;&gt;\nhttp://img689.imageshack.us/img689/6196/ocoh.jpg&lt;/a&gt;\n &lt;a href=&quot;\nhttp://img46.imageshack.us/img46/3416/vd9r.jpg&quot; rel=&quot;nofollow&quot; target=&quot;_NEW&quot;&gt;\nhttp://img46.imageshack.us/img46/3416/vd9r.jpg&lt;/a&gt;\n &lt;a href=&quot;\nhttp://img46.imageshack.us/img46/3416/vd9r.jpg&quot; rel=&quot;nofollow&quot; target=&quot;_NEW&quot;&gt;\nhttp://img46.imageshack.us/img46/3416/vd9r.jpg&lt;/a&gt;\n\n\nNote:-- Check The Torrent\n\n\nCheck The Sample Video In This Torrent\t","torrent":{"xt":"urn:btih:2aa7818f3f926845620c386811a3fee88e48aa8b","amp;dn":"King+Kong%5BTheatri.Cut%5D+%282005%291080p+BDRip%5BHindi-Tamil-Eng%5D-DGrea8","amp;tr":["udp%3A%2F%2Ftracker.openbittorrent.com%3A80","udp%3A%2F%2Fopen.demonii.com%3A1337","udp%3A%2F%2Ftracker.coppersurfer.tk%3A6969","udp%3A%2F%2Fexodus.desync.com%3A6969"],"infoHash":"2aa7818f3f926845620c386811a3fee88e48aa8b","infoHashBuffer":{"type":"Buffer","data":[42,167,129,143,63,146,104,69,98,12,56,104,17,163,254,232,142,72,170,139]},"announce":[],"urlList":[]}}